<svg width="35" height="35" viewBox="0 0 35 35" fill="none" xmlns="http://www.w3.org/2000/svg">
<path d="M17.5315 0.13121C7.8857 0.13121 0.0639267 8.08489 0.0639267 17.897C0.0639267 25.7466 5.06893 32.4061 12.0093 34.7552C12.8823 34.9197 13.2028 34.3698 13.2028 33.9006C13.2028 33.4769 13.1866 32.0774 13.1791 30.5929C8.31959 31.6676 7.29417 28.4967 7.29417 28.4967C6.49959 26.4432 5.35471 25.8972 5.35471 25.8972C3.76988 24.7945 5.47417 24.8172 5.47417 24.8172C7.22822 24.9422 8.15182 26.648 8.15182 26.648C9.70975 29.364 12.2381 28.5788 13.2349 28.1249C13.3917 26.9769 13.8444 26.1926 14.3439 25.7492C10.4641 25.3 6.38562 23.7766 6.38562 16.9691C6.38562 15.0295 7.06798 13.4446 8.18537 12.2004C8.00401 11.7527 7.40612 9.946 8.35459 7.49884C8.35459 7.49884 9.8214 7.02136 13.1594 9.31994C14.5528 8.9263 16.0471 8.72889 17.5315 8.72213C19.016 8.72889 20.5114 8.9263 21.9074 9.31994C25.2414 7.02136 26.7062 7.49884 26.7062 7.49884C27.6569 9.946 27.0588 11.7527 26.8774 12.2004C27.9974 13.4446 28.6751 15.0295 28.6751 16.9691C28.6751 23.7928 24.5888 25.2953 20.6992 25.7351C21.3257 26.2864 21.884 27.3676 21.884 29.0251C21.884 31.402 21.8637 33.3151 21.8637 33.9006C21.8637 34.3734 22.1781 34.9273 23.0636 34.7529C30.0002 32.4011 34.9988 25.7439 34.9988 17.897C34.9988 8.08489 27.1782 0.13121 17.5315 0.13121" fill="black"/>
<path d="M6.67979 25.6392C6.64132 25.7277 6.50479 25.7539 6.38041 25.6933C6.25372 25.6354 6.18256 25.515 6.22363 25.4265C6.26124 25.3356 6.39806 25.3106 6.52446 25.3709C6.65144 25.4291 6.72376 25.5506 6.67979 25.6392" fill="black"/>
<path d="M7.38732 26.4418C7.30401 26.5203 7.14116 26.4838 7.03066 26.3597C6.91641 26.2358 6.895 26.0702 6.97946 25.9905C7.06537 25.9119 7.22331 25.9487 7.33785 26.0725C7.45211 26.1979 7.47438 26.3623 7.38732 26.4418" fill="black"/>
<path d="M8.07603 27.465C7.96901 27.5406 7.79401 27.4697 7.68583 27.3117C7.5788 27.1537 7.5788 26.9642 7.68814 26.8883C7.79661 26.8124 7.96901 26.8807 8.07864 27.0375C8.18537 27.1978 8.18537 27.3876 8.07603 27.465" fill="black"/>
<path d="M9.01959 28.4535C8.92385 28.5609 8.71992 28.532 8.57066 28.3855C8.41794 28.2423 8.37542 28.039 8.47145 27.9316C8.56835 27.8239 8.77343 27.8542 8.92385 27.9995C9.07542 28.1425 9.1217 28.3473 9.01959 28.4535" fill="black"/>
<path d="M10.3212 29.0275C10.279 29.1666 10.0826 29.2299 9.88475 29.1708C9.68719 29.1099 9.55789 28.9469 9.59781 28.8062C9.63888 28.6662 9.83616 28.6003 10.0355 28.6635C10.2327 28.7242 10.3623 28.886 10.3212 29.0275" fill="black"/>
<path d="M11.7507 29.134C11.7557 29.2805 11.5879 29.402 11.3802 29.4043C11.1714 29.4093 11.0024 29.2908 11.0001 29.1466C11.0001 28.9986 11.1641 28.8783 11.373 28.8748C11.5807 28.8707 11.7507 28.9883 11.7507 29.134" fill="black"/>
<path d="M13.081 28.9036C13.1059 29.0466 12.9616 29.1934 12.7553 29.2322C12.5526 29.2702 12.3648 29.1819 12.3391 29.0401C12.3139 28.8936 12.4609 28.7468 12.6633 28.7089C12.8699 28.6724 13.0547 28.7583 13.081 28.9036" fill="black"/>
</svg>
