<svg width="35" height="35" viewBox="0 0 35 35" fill="none" xmlns="http://www.w3.org/2000/svg">
<path fill-rule="evenodd" clip-rule="evenodd" d="M0 17.5C0 27.165 7.83502 35 17.5 35C27.165 35 35 27.165 35 17.5C35 7.83502 27.165 0 17.5 0C7.83502 0 0 7.83502 0 17.5ZM7.62192 11.8189L8.99147 8.16669H27.7048V20.9502L22.2269 26.4262H18.1193L15.3816 29.1667H12.6413V26.4262H7.62192V11.8189Z" fill="black"/>
<path fill-rule="evenodd" clip-rule="evenodd" d="M10.8161 9.99166H25.8794V20.0353L22.6835 23.2315H17.6633L14.9265 25.9682V23.2315H10.8161V9.99166ZM15.8375 19.1235H17.6633V13.6458H15.8375V19.1235ZM22.6835 19.1235H20.8579V13.6458H22.6835V19.1235Z" fill="black"/>
</svg>
